<?xml version="1.0" encoding="utf-8"?>
<!-- Generator: Adobe Illustrator 21.1.0, SVG Export Plug-In . SVG Version: 6.00 Build 0)  -->
<svg version="1.1" id="Lager_1" xmlns="http://www.w3.org/2000/svg" xmlns:xlink="http://www.w3.org/1999/xlink" x="0px" y="0px"
	 viewBox="0 0 111 40.1" style="enable-background:new 0 0 111 40.1;" xml:space="preserve">
<style type="text/css">
	.st0{fill:none;}
	.st1{fill:#FFE610;}
</style>
<g>
	<g>
		<path class="st0" d="M9.8,15.5h13.9c0.1-1.3,0.3-2.6,0.6-3.9c0.1-0.7,0.3-1.3,0.5-2c-0.6,0.1-1.1,0.4-1.6,0.7
			c0.2,0.3,0.2,0.7,0.2,1.1c0,0.1,0,0.3,0,0.4c-0.2,1.2-1.1,2.1-2.3,2.2c-0.3,0-0.5,0-0.8-0.1c-1-0.2-1.8-1.1-2-2.1
			c0-0.1,0-0.3,0-0.4c0-0.9,0.4-1.7,1.1-2.2C18.7,8.5,17.8,8,16.7,8c-1,0-2,0.5-2.6,1.3c0.7,0.5,1.1,1.3,1.1,2.2c0,0.1,0,0.3,0,0.4
			c-0.2,1-0.9,1.9-2,2.1c-0.3,0.1-0.5,0.1-0.8,0.1c-1.2-0.1-2.2-1-2.3-2.2c0-0.1,0-0.3,0-0.4c0-0.4,0.1-0.8,0.3-1.1
			c-0.5-0.4-1-0.6-1.6-0.7c0.2,0.7,0.3,1.3,0.5,2C9.4,12.9,9.6,14.2,9.8,15.5z"/>
		<path class="st1" d="M13.6,29.9C13.6,29.9,13.6,29.9,13.6,29.9c1.1,0.7,2,1,3.1,1c1.1,0,2-0.3,3.1-1c0,0,0,0,0,0l-3.1-0.7
			L13.6,29.9z"/>
		<path class="st1" d="M27,17.4c-0.2-0.9-0.9-1.6-1.7-1.7c0.1-1.3,0.3-2.5,0.5-3.7c0.2-1,0.4-2,0.7-2.9l0.1-0.2L25.4,8
			C24.2,8,23,8.4,22,9.2l-0.5,1.6l0,0c0.2,0.2,0.3,0.4,0.3,0.7c0,0,0,0.1,0,0.2c-0.1,0.5-0.4,0.8-0.9,0.8c-0.1,0-0.2,0-0.3,0
			c-0.4-0.1-0.7-0.4-0.7-0.8c0-0.1,0-0.1,0-0.2c0-0.5,0.3-0.8,0.7-1L21,9c-0.7-1.3-2-2.3-3.5-2.5l-0.2-1.3h-1.2l-0.2,1.3
			c-1.5,0.2-2.8,1.2-3.5,2.5l0.5,1.5c0.4,0.1,0.7,0.5,0.7,1c0,0,0,0.1,0,0.2c-0.1,0.4-0.4,0.7-0.8,0.8c-0.1,0-0.2,0-0.3,0
			c-0.5,0-0.8-0.4-0.9-0.8c0-0.1,0-0.1,0-0.2c0-0.3,0.1-0.5,0.3-0.7l0,0l-0.5-1.6C10.4,8.4,9.2,8,8,8L6.8,8.8L6.9,9
			c0.3,1,0.5,2,0.7,2.9c0.2,1.2,0.4,2.5,0.5,3.7c-0.8,0.1-1.5,0.8-1.7,1.7c-0.1,0.6,0,1.3,0.4,1.8c0.4,0.5,0.9,0.7,1.5,0.7l0.2,0
			L9,19.8h0.3c0.1,2.8-0.5,7-0.5,7L9.3,27c0.9,0.4,1.6,0.8,2.2,1.3c0.2,0.2,0.5,0.4,0.7,0.6l3.9-0.7l-0.2-1.1
			c-1.7-0.4-2.9-1.8-2.9-1.8l0.9-5.2c0,0-0.4,0.3-1.1,0.1c-0.8-0.1-2.6-2.3-2.6-2.3l0-0.5c3.5,0,4.6,0.9,4.6,2.2l-0.1,4.9
			c0,0,0.9,0.8,2,0.8c1.1,0,2-0.8,2-0.8l-0.1-4.9c0-1.3,1-2.2,4.6-2.2l0,0.5c0,0-1.7,2.2-2.6,2.3c-0.8,0.1-1.1-0.1-1.1-0.1l0.9,5.2
			c0,0-1.3,1.4-2.9,1.8l-0.2,1.1l3.9,0.7c0.2-0.2,0.5-0.4,0.7-0.6c0.7-0.6,1.3-1,2.3-1.3l0.5-0.2c0,0-0.6-4.2-0.5-7h0.3l0.5,0.1
			l0.2,0c0.6,0,1.1-0.2,1.5-0.7C27,18.7,27.1,18,27,17.4z M10.3,10.4c-0.2,0.3-0.3,0.7-0.3,1.1c0,0.1,0,0.3,0,0.4
			c0.2,1.2,1.1,2.1,2.3,2.2c0.3,0,0.5,0,0.8-0.1c1-0.2,1.8-1.1,2-2.1c0-0.1,0-0.3,0-0.4c0-0.9-0.4-1.7-1.1-2.2
			C14.7,8.5,15.7,8,16.7,8c1,0,2,0.5,2.6,1.3c-0.7,0.5-1.1,1.3-1.1,2.2c0,0.1,0,0.3,0,0.4c0.2,1,0.9,1.9,2,2.1
			c0.3,0.1,0.5,0.1,0.8,0.1c1.2-0.1,2.2-1,2.3-2.2c0-0.1,0-0.3,0-0.4c0-0.4-0.1-0.8-0.2-1.1c0.5-0.4,1-0.6,1.6-0.7
			c-0.2,0.7-0.3,1.3-0.5,2c-0.3,1.3-0.5,2.6-0.6,3.9H9.8c-0.1-1.3-0.3-2.6-0.6-3.9c-0.1-0.7-0.3-1.3-0.5-2C9.3,9.8,9.8,10,10.3,10.4
			z"/>
	</g>
	<g>
		<path class="st1" d="M40.1,16.5h2.3v9.1h0.1l3.8-4.7h2.6l-3.5,4.1l3.8,6h-2.6L44,26.7l-1.6,1.8v2.6h-2.3V16.5z"/>
		<path class="st1" d="M48.8,26c0-3.4,2.3-5.3,4.8-5.3c2.5,0,4.8,1.9,4.8,5.3c0,3.4-2.3,5.3-4.8,5.3C51.1,31.3,48.8,29.4,48.8,26z
			 M56,26c0-2-0.9-3.4-2.4-3.4c-1.5,0-2.4,1.4-2.4,3.4s0.9,3.4,2.4,3.4C55.1,29.4,56,28,56,26z"/>
		<path class="st1" d="M59.8,20.9h1.9l0.2,1.4H62c0.9-0.9,1.8-1.6,3.1-1.6c1.5,0,2.3,0.7,2.8,1.8c1-1,2-1.8,3.3-1.8
			c2.1,0,3.1,1.5,3.1,4v6.3h-2.4v-6c0-1.7-0.5-2.3-1.6-2.3c-0.6,0-1.3,0.4-2.1,1.3v7.1h-2.4v-6c0-1.7-0.5-2.3-1.6-2.3
			c-0.6,0-1.3,0.4-2.1,1.3v7.1h-2.4V20.9z"/>
		<path class="st1" d="M75.9,20.9h1.9l0.2,1.4h0.1c0.9-0.9,1.8-1.6,3.1-1.6c1.5,0,2.3,0.7,2.8,1.8c1-1,2-1.8,3.3-1.8
			c2.1,0,3.1,1.5,3.1,4v6.3H88v-6c0-1.7-0.5-2.3-1.6-2.3c-0.6,0-1.3,0.4-2.1,1.3v7.1H82v-6c0-1.7-0.5-2.3-1.6-2.3
			c-0.6,0-1.3,0.4-2.1,1.3v7.1h-2.4V20.9z"/>
		<path class="st1" d="M92.1,27.3v-6.3h2.4v6c0,1.7,0.5,2.3,1.6,2.3c0.9,0,1.5-0.4,2.2-1.4v-6.9h2.4v10.1h-1.9l-0.2-1.5h-0.1
			c-0.9,1.1-1.9,1.7-3.3,1.7C93.1,31.3,92.1,29.9,92.1,27.3z"/>
		<path class="st1" d="M102.4,20.9h1.9l0.2,1.4h0.1c0.9-0.9,1.9-1.6,3.3-1.6c2.2,0,3.1,1.5,3.1,4v6.3h-2.4v-6c0-1.7-0.5-2.3-1.6-2.3
			c-0.9,0-1.5,0.4-2.3,1.3v7.1h-2.4V20.9z"/>
	</g>
	<g>
		<path class="st1" d="M40.1,7.6V0h2.4v7.7c0,2.9,1.1,3.9,2.7,3.9c1.6,0,2.8-1,2.8-3.9V0h2.3v7.6c0,4.4-2,6.2-5.1,6.2
			C42.1,13.7,40.1,12,40.1,7.6z"/>
		<path class="st1" d="M52,3.4h1.9l0.2,1.1h0.1c0.9-0.7,1.9-1.3,3.1-1.3c2.5,0,4,2,4,5.2c0,3.5-2.1,5.5-4.3,5.5
			c-0.9,0-1.8-0.4-2.6-1.1l0.1,1.7v3.2H52V3.4z M58.8,8.3c0-2-0.7-3.2-2.2-3.2c-0.7,0-1.4,0.4-2.2,1.1v4.7c0.7,0.6,1.4,0.8,2,0.8
			C57.7,11.8,58.8,10.6,58.8,8.3z"/>
		<path class="st1" d="M62.5,3.4h1.9l0.2,1.1h0.1c0.9-0.7,1.9-1.3,3.1-1.3c2.5,0,4,2,4,5.2c0,3.5-2.1,5.5-4.3,5.5
			c-0.9,0-1.8-0.4-2.6-1.1l0.1,1.7v3.2h-2.4V3.4z M69.3,8.3c0-2-0.7-3.2-2.2-3.2c-0.7,0-1.4,0.4-2.2,1.1v4.7c0.7,0.6,1.4,0.8,2,0.8
			C68.3,11.8,69.3,10.6,69.3,8.3z"/>
		<path class="st1" d="M72.4,12.3l1.1-1.5c0.9,0.7,1.8,1.1,2.8,1.1c1.1,0,1.6-0.5,1.6-1.2c0-0.8-1.1-1.2-2.2-1.6
			c-1.3-0.5-2.8-1.3-2.8-3c0-1.8,1.4-3,3.7-3c1.4,0,2.5,0.6,3.4,1.2l-1.1,1.5c-0.7-0.5-1.4-0.9-2.2-0.9c-1,0-1.5,0.5-1.5,1.1
			c0,0.8,1,1.1,2.1,1.5c1.4,0.5,2.9,1.2,2.9,3.1c0,1.7-1.4,3.1-3.9,3.1C74.8,13.7,73.4,13.1,72.4,12.3z"/>
		<path class="st1" d="M81.2,10.8c0-2.2,1.8-3.3,6-3.7c0-1.1-0.5-2-1.8-2c-1,0-2,0.5-2.8,1l-0.9-1.6c1.1-0.7,2.5-1.3,4.2-1.3
			c2.5,0,3.8,1.6,3.8,4.4v6h-1.9l-0.2-1.1h-0.1c-0.9,0.8-1.9,1.4-3.1,1.4C82.4,13.7,81.2,12.5,81.2,10.8z M87.1,10.8V8.5
			c-2.7,0.3-3.7,1.1-3.7,2.1c0,0.9,0.6,1.3,1.5,1.3C85.7,11.9,86.4,11.5,87.1,10.8z"/>
		<path class="st1" d="M94.8,10.8c0-2.2,1.8-3.3,6-3.7c0-1.1-0.5-2-1.8-2c-1,0-2,0.5-2.8,1l-0.9-1.6c1.1-0.7,2.5-1.3,4.2-1.3
			c2.5,0,3.8,1.6,3.8,4.4v6h-1.9l-0.2-1.1H101c-0.9,0.8-1.9,1.4-3.1,1.4C96.1,13.7,94.8,12.5,94.8,10.8z M100.8,10.8V8.5
			c-2.7,0.3-3.7,1.1-3.7,2.1c0,0.9,0.6,1.3,1.5,1.3C99.4,11.9,100,11.5,100.8,10.8z"/>
		<rect x="91.2" class="st1" width="2.3" height="13.5"/>
	</g>
	<path class="st1" d="M26.7,0v2.2h4.5v22.5c0.2,3.9-1.3,7.3-4.1,9.7c-2.7,2.3-6.4,3.6-10.4,3.6S9,36.7,6.3,34.4
		c-2.8-2.4-4.3-5.8-4.1-9.7V2.2h4.5V0H0v24.9c0,8.8,7,15.2,16.7,15.2s16.7-6.4,16.7-15.2V0H26.7z"/>
</g>
</svg>
